<?xml version="1.0" encoding="UTF-8" standalone="no"?>
<!-- Created with Inkscape (http://www.inkscape.org/) -->

<svg
   width="512"
   height="512"
   viewBox="0 0 512 512"
   version="1.1"
   id="svg1"
   xml:space="preserve"
   inkscape:version="1.3.2 (091e20e, 2023-11-25, custom)"
   sodipodi:docname="icon.svg"
   inkscape:export-filename="icon.png"
   inkscape:export-xdpi="96"
   inkscape:export-ydpi="96"
   xmlns:inkscape="http://www.inkscape.org/namespaces/inkscape"
   xmlns:sodipodi="http://sodipodi.sourceforge.net/DTD/sodipodi-0.dtd"
   xmlns="http://www.w3.org/2000/svg"
   xmlns:svg="http://www.w3.org/2000/svg"><sodipodi:namedview
     id="namedview1"
     pagecolor="#ffffff"
     bordercolor="#000000"
     borderopacity="0.25"
     inkscape:showpageshadow="2"
     inkscape:pageopacity="0.0"
     inkscape:pagecheckerboard="0"
     inkscape:deskcolor="#d1d1d1"
     inkscape:document-units="px"
     inkscape:zoom="1.3125"
     inkscape:cx="256"
     inkscape:cy="256.38095"
     inkscape:window-width="1920"
     inkscape:window-height="974"
     inkscape:window-x="-11"
     inkscape:window-y="-11"
     inkscape:window-maximized="1"
     inkscape:current-layer="svg1" /><defs
     id="defs1"><marker
       markerWidth="2"
       markerHeight="4"
       refX="1"
       refY="2"
       orient="auto"
       id="marker2"
       viewBox="0 0 2 4"
       preserveAspectRatio="xMidYMid"><path
         d="M 2,3 V 1 A 1,1 0 0 0 0,1 v 2 a 1,1 0 0 0 2,0 z"
         id="path2"
         style="fill:#bd93f9" /></marker></defs><g
     id="g1"
     transform="translate(2.2296049,29.347825)"><g
       id="g7"
       transform="matrix(9.7826087,0,0,9.7826087,16.75818,21.217391)"
       style="fill:#567a0d"><path
         id="path13"
         style="display:inline;fill:#567a0d"
         d="m 2.3336185,29 c 0,0 -0.438042,1.991835 -0.585192,3 -0.145113,0.994211 -0.292596,1.995255 -0.292596,3 0,1.004745 0.147483,2.005789 0.292596,3 0.14715,1.008165 0.585192,3 0.585192,3 H 13.163235 c 0,0 0.438042,-1.991835 0.585192,-3 0.145113,-0.994211 0.292596,-1.995255 0.292596,-3 0,-1.004745 -0.147483,-2.005789 -0.292596,-3 -0.14715,-1.008165 -0.585192,-3 -0.585192,-3 z"
         sodipodi:nodetypes="caaaccaaacc" /><path
         id="path14"
         style="display:inline;fill:#567a0d"
         d="m 15.748426,29 c 0,0 -0.438041,1.991835 -0.585191,3 -0.145113,0.994211 -0.292596,1.995255 -0.292596,3 0,1.004745 0.147483,2.005789 0.292596,3 0.14715,1.008165 0.585191,3 0.585191,3 h 10.829617 c 0,0 0.438041,-1.991835 0.585191,-3 0.145113,-0.994211 0.292596,-1.995255 0.292596,-3 0,-1.004745 -0.147483,-2.005789 -0.292596,-3 -0.14715,-1.008165 -0.585191,-3 -0.585191,-3 z"
         sodipodi:nodetypes="caaaccaaacc" /><path
         id="path15"
         style="display:inline;fill:#567a0d"
         d="m 29.163234,29 c 0,0 -0.438042,1.991835 -0.585192,3 -0.145112,0.994211 -0.292596,1.995255 -0.292596,3 0,1.004745 0.147484,2.005789 0.292596,3 0.14715,1.008165 0.585192,3 0.585192,3 h 10.829617 c 0,0 0.438042,-1.991835 0.585191,-3 0.145114,-0.994211 0.292597,-1.995255 0.292597,-3 0,-1.004745 -0.147483,-2.005789 -0.292597,-3 -0.14715,-1.008165 -0.585191,-3 -0.585191,-3 z"
         sodipodi:nodetypes="caaaccaaacc" /></g><path
       id="path16"
       style="display:inline;fill:#015493;stroke-width:9.78261"
       d="m 60.238173,167.95652 c 0,0 -4.285194,19.48534 -5.724705,29.34783 -1.419584,9.72597 -2.862352,19.5188 -2.862352,29.34782 0,9.82903 1.442768,19.62185 2.862352,29.34783 1.439511,9.86248 5.724705,29.34783 5.724705,29.34783 H 166.18007 c 0,0 4.28519,-19.48535 5.7247,-29.34783 1.41959,-9.72598 2.86235,-19.5188 2.86235,-29.34783 0,-9.82902 -1.44276,-19.62185 -2.86235,-29.34782 -1.43951,-9.86249 -5.7247,-29.34783 -5.7247,-29.34783 z"
       sodipodi:nodetypes="caaaccaaacc" /><path
       id="path17"
       style="display:inline;fill:#015493;stroke-width:9.78261"
       d="m 192.45219,167.95652 c 0,0 -4.28518,19.48534 -5.72469,29.34783 -1.41959,9.72597 -2.86235,19.5188 -2.86235,29.34782 0,9.82903 1.44276,19.62185 2.86235,29.34783 1.43951,9.86248 5.72469,29.34783 5.72469,29.34783 H 298.3941 c 0,0 4.28518,-19.48535 5.72469,-29.34783 1.41959,-9.72598 2.86236,-19.5188 2.86236,-29.34783 0,-9.82902 -1.44277,-19.62185 -2.86236,-29.34782 -1.43951,-9.86249 -5.72469,-29.34783 -5.72469,-29.34783 z"
       sodipodi:nodetypes="caaaccaaacc" /><g
       id="g21"
       transform="matrix(9.7826087,0,0,9.7826087,89.546277,-252.69565)"
       style="display:inline;fill:#803378"><path
         id="path19"
         style="display:inline;fill:#803378"
         d="m 1.585192,29 c 0,0 -0.438042,1.991835 -0.585192,3 -0.145113,0.994211 -0.292596,1.995255 -0.292596,3 0,1.004745 0.147483,2.005789 0.292596,3 0.14715,1.008165 0.585192,3 0.585192,3 h 10.829616 c 0,0 0.438042,-1.991835 0.585192,-3 0.145113,-0.994211 0.292596,-1.995255 0.292596,-3 0,-1.004745 -0.147483,-2.005789 -0.292596,-3 -0.14715,-1.008165 -0.585192,-3 -0.585192,-3 z"
         sodipodi:nodetypes="caaaccaaacc" /></g><path
       id="path20"
       style="display:inline;fill:#9c2121;stroke-width:9.78261"
       d="m 272.35997,36.02078 c 0,0 -9.18235,17.712306 -13.12541,26.866162 -3.88848,9.027157 -7.81666,18.112886 -10.3606,27.606995 -2.54394,9.494113 -3.68485,19.326673 -4.8309,29.088673 -1.16213,9.89899 -2.06611,29.82949 -2.06611,29.82949 l 102.33202,27.41977 c 0,0 9.18236,-17.7123 13.12541,-26.86615 3.88848,-9.02717 7.81666,-18.11288 10.36061,-27.607 2.54393,-9.49411 3.68485,-19.32669 4.8309,-29.088672 1.16213,-9.898998 2.06611,-29.829487 2.06611,-29.829487 z"
       sodipodi:nodetypes="caaaccaaacc" /><path
       id="path18"
       style="display:inline;fill:#b75301;stroke-width:9.78261"
       d="m 384.79245,149.33477 c 0,0 -13.45375,14.7322 -19.63165,22.55361 -6.09239,7.71314 -12.23826,15.4726 -17.15279,23.98478 -4.91451,8.51218 -8.5614,17.71443 -12.19499,26.84717 -3.68458,9.26091 -9.71615,28.27832 -9.71615,28.27832 l 91.74834,52.97093 c 0,0 13.45375,-14.7322 19.63164,-22.55361 6.09239,-7.71315 12.23827,-15.4726 17.1528,-23.98478 4.91451,-8.51218 8.56139,-17.71443 12.195,-26.84717 3.68458,-9.26091 9.71614,-28.27832 9.71614,-28.27832 z"
       sodipodi:nodetypes="caaaccaaacc" /><g
       id="path1"
       style="display:inline;fill:#b75301"
       inkscape:label="attention_marks"
       transform="matrix(9.7826087,0,0,9.7826087,45.713062,21.217391)"><path
         d="M 40.132162,10.231455 41.561339,8.8323647 A 1.0000003,1.0000003 0 0 0 40.162248,7.4031878 l -1.429177,1.3990903 a 1.0000003,1.0000003 0 0 0 1.399091,1.4291769 z"
         id="path7"
         style="color:#000000;fill:#b75301;-inkscape-stroke:none" /><path
         d="m 37.05852,8.0873103 v -2 a 1,1 0 0 0 -2,0 v 2 a 1,1 0 0 0 2,0 z"
         id="path6"
         style="color:#000000;fill:#b75301;-inkscape-stroke:none" /><path
         d="m 40.840794,13.993933 h 2 a 1,1 0 0 0 0,-2 h -2 a 1,1 0 0 0 0,2 z"
         id="path3"
         style="color:#000000;fill:#b75301;-inkscape-stroke:none" /></g></g></svg>
